<?xml version="1.0" encoding="UTF-8" standalone="no"?>
<svg
   shape-rendering="geometricPrecision"
   text-rendering="geometricPrecision"
   image-rendering="optimizeQuality"
   fill-rule="evenodd"
   clip-rule="evenodd"
   viewBox="0 0 512 391"
   version="1.1"
   id="svg1"
   sodipodi:docname="left-right-bold-arrow-icon.svg"
   inkscape:version="1.3 (0e150ed6c4, 2023-07-21)"
   xmlns:inkscape="http://www.inkscape.org/namespaces/inkscape"
   xmlns:sodipodi="http://sodipodi.sourceforge.net/DTD/sodipodi-0.dtd"
   xmlns="http://www.w3.org/2000/svg"
   xmlns:svg="http://www.w3.org/2000/svg">
  <defs
     id="defs1" />
  <sodipodi:namedview
     id="namedview1"
     pagecolor="#ffffff"
     bordercolor="#000000"
     borderopacity="0.25"
     inkscape:showpageshadow="2"
     inkscape:pageopacity="0.0"
     inkscape:pagecheckerboard="0"
     inkscape:deskcolor="#d1d1d1"
     inkscape:zoom="2.3579016"
     inkscape:cx="255.94791"
     inkscape:cy="178.33653"
     inkscape:window-width="1920"
     inkscape:window-height="1009"
     inkscape:window-x="-8"
     inkscape:window-y="-8"
     inkscape:window-maximized="1"
     inkscape:current-layer="svg1" />
  <path
     fill-rule="nonzero"
     d="M216.22 64.01h156.74V7.78c0-4.3 3.48-7.78 7.77-7.78 2.17 0 4.12.88 5.53 2.3l123.06 106.59c3.24 2.8 3.59 7.7.79 10.93-.26.31-.55.59-.85.85L385.81 227.59c-3.24 2.8-8.14 2.44-10.94-.79a7.719 7.719 0 0 1-1.89-5.07l-.02-56.24H216.22c-4.29 0-7.77-3.48-7.77-7.77V71.78c0-4.29 3.48-7.77 7.77-7.77zm-77.18 161.52h156.74c4.29 0 7.77 3.48 7.77 7.78v85.93c0 4.29-3.48 7.77-7.77 7.77H139.04v56.24c-.02 1.8-.64 3.61-1.91 5.07a7.746 7.746 0 0 1-10.93.79L2.74 282.19c-.3-.26-.58-.54-.85-.85a7.746 7.746 0 0 1 .79-10.93l123.07-106.58a7.702 7.702 0 0 1 5.52-2.31c4.29 0 7.77 3.48 7.77 7.78v56.23z"
     id="path1" />
  <text
     xml:space="preserve"
     style="font-size:85.3333px;fill:#ffffff;stroke:#000000;stroke-width:1.75748"
     x="223.92822"
     y="309.63074"
     id="text1"><tspan
       sodipodi:role="line"
       id="tspan1"
       x="223.92822"
       y="309.63074"
       style="font-size:85.3333px;fill:#ffffff">Offline</tspan></text>
  <text
     xml:space="preserve"
     style="font-size:85.3333px;fill:#ffffff;stroke:#000000;stroke-width:1.75748"
     x="0.36329281"
     y="146.84743"
     id="text1-7"><tspan
       sodipodi:role="line"
       id="tspan1-9"
       x="0.36329281"
       y="146.84743"
       style="font-size:85.3333px;fill:#ffffff">Online</tspan></text>
</svg>
