<svg xmlns="http://www.w3.org/2000/svg" width="336" height="68" viewBox="0 0 336 68">
  <title>logo-phbern</title>
  <path d="M213.8532,55.14751a2.11534,2.11534,0,0,0-2.0642,2.05623h3.9186A1.79379,1.79379,0,0,0,213.8532,55.14751Zm3.7875,3.44375H211.754c-.0568,2.12811.8912,3.09088,2.73041,3.09088a6.38864,6.38864,0,0,0,2.6911-.59247l.18348,1.57485a8.42011,8.42011,0,0,1-3.19349.59247c-2.8745,0-4.456-1.48118-4.456-4.72018,0-2.77722,1.52249-4.85306,4.2179-4.85306,2.6365,0,3.76581,1.797,3.76581,3.98177A8.954,8.954,0,0,1,217.6407,58.59126Zm-12.6259,4.47928V49.55474h1.98551v13.5158Zm-5.3477.00152a11.94053,11.94053,0,0,1,.1333-1.797l-.0219-.01742a3.36735,3.36735,0,0,1-3.2131,1.9996c-2.09689,0-2.7478-1.31346-2.7478-2.94494V53.86912h1.9702V59.796c0,1.14792.3146,1.81445,1.3739,1.81445,1.3914,0,2.41369-1.46376,2.41369-3.29781V53.86912h1.98551v9.20294Zm-11.27139,0V57.14733c0-1.14792-.31681-1.81445-1.374-1.81445-1.3936,0-2.41139,1.46375-2.41139,3.31306v4.42612h-1.9899V49.55626h1.9899v4.16692a8.42925,8.42925,0,0,1-.17041,1.85148l.0393.01742a3.30437,3.30437,0,0,1,3.1389-1.90811c2.0969,0,2.74559,1.31564,2.74559,2.94494v6.44315ZM177.423,63.22c-2.37651,0-4.10209-1.16534-4.10209-4.44355,0-2.92534,1.505-5.05345,4.68089-5.05345a7.12284,7.12284,0,0,1,2.0052.27663l-.2075,1.723a5.40124,5.40124,0,0,0-1.8566-.35287c-1.6907,0-2.5426,1.24158-2.5426,3.18454,0,1.68594.6116,2.96237,2.4508,2.96237a4.60762,4.60762,0,0,0,2.00519-.44436l.166,1.68594A7.51812,7.51812,0,0,1,177.423,63.22Zm-10.21119.03725a10.61061,10.61061,0,0,1-1.95061-.18515l.05679-1.68376a7.53884,7.53884,0,0,0,2.00521.29406c1.0769,0,1.8195-.46178,1.8195-1.222,0-1.8493-4.0475-.74059-4.0475-3.92513,0-1.5901,1.2997-2.85128,3.8072-2.85128a11.20288,11.20288,0,0,1,1.7257.16772l-.05471,1.6097a6.56349,6.56349,0,0,0-1.802-.25921c-1.09649,0-1.63389.44436-1.63389,1.1501,0,1.77742,4.0847.8691,4.0847,3.923C171.2222,61.9982,169.6801,63.25721,167.21181,63.25721Zm-6.94332-.18515V57.14733c0-1.14792-.31669-1.81445-1.37388-1.81445-1.3936,0-2.41371,1.46375-2.41371,3.31306v4.42612h-1.98771V49.55626h1.98771v4.16692a8.42624,8.42624,0,0,1-.1682,1.85148l.0394.01742a3.30322,3.30322,0,0,1,3.13659-1.90811c2.09911,0,2.74572,1.31564,2.74572,2.94494v6.44315Zm-10.9729.1479c-2.37649,0-4.10209-1.16534-4.10209-4.44355,0-2.92534,1.5028-5.05345,4.6788-5.05345a7.11214,7.11214,0,0,1,2.0052.27663l-.2053,1.723a5.40433,5.40433,0,0,0-1.85891-.35287c-1.68629,0-2.5403,1.24158-2.5403,3.18454,0,1.68594.61161,2.96237,2.44861,2.96237a4.60089,4.60089,0,0,0,2.00521-.44436l.166,1.68594A7.50493,7.50493,0,0,1,149.29559,63.22ZM138.8439,55.35248c-1.2079,0-2.37871.92356-2.37871,3.03643,0,2.07147.817,3.16494,2.35911,3.16494,1.28,0,2.359-.9998,2.359-3.12792C141.1833,56.46119,140.41879,55.35248,138.8439,55.35248Zm-.2053,7.90473c-2.5622,0-4.2332-1.42455-4.2332-4.66573,0-2.77722,1.8021-4.90751,4.6045-4.90751,2.47049,0,4.21579,1.37009,4.21579,4.61127C143.22569,61.12692,141.369,63.25721,138.6386,63.25721Zm-8.9312-.18515V57.461h-5.9217v5.61107h-2.0248V50.57348h2.0248V55.7402h5.9217V50.57348h2.0052V63.07206Zm-19.1951-7.92455a2.11385,2.11385,0,0,0-2.0641,2.05623h3.9186A1.79386,1.79386,0,0,0,110.5123,55.14751Zm3.7854,3.44375h-5.8845c-.0568,2.12811.889,3.09088,2.7304,3.09088a6.38851,6.38851,0,0,0,2.6911-.59247l.1856,1.57485a8.43557,8.43557,0,0,1-3.1934.59247c-2.8768,0-4.456-1.48118-4.456-4.72018,0-2.77722,1.5203-4.85306,4.2157-4.85306,2.6343,0,3.7658,1.797,3.7658,3.98177A8.4349,8.4349,0,0,1,114.2977,58.59126Zm-12.6067,4.4808V57.14733c0-1.14792-.3167-1.81445-1.3739-1.81445-1.39362,0-2.41151,1.46375-2.41151,3.31306v4.42612h-1.9899V49.55626h1.9899v4.16692a8.42686,8.42686,0,0,1-.17037,1.85148l.03931.01742A3.30437,3.30437,0,0,1,100.9134,53.684c2.0969,0,2.7457,1.31564,2.7457,2.94494v6.44315ZM90.71834,63.22c-2.37653,0-4.10432-1.16534-4.10432-4.44355,0-2.92534,1.50717-5.05345,4.681-5.05345a7.10108,7.10108,0,0,1,2.00519.27663l-.20532,1.723a5.4016,5.4016,0,0,0-1.85667-.35287c-1.69065,0-2.54472,1.24158-2.54472,3.18454,0,1.68594.61379,2.96237,2.4508,2.96237a4.60068,4.60068,0,0,0,2.0052-.44436l.16819,1.68594A7.5386,7.5386,0,0,1,90.71834,63.22Zm-10.21143.03725a10.57262,10.57262,0,0,1-1.95059-.18515l.05679-1.68376a7.51188,7.51188,0,0,0,2.0052.29406c1.07686,0,1.81953-.46178,1.81953-1.222,0-1.8493-4.04753-.74059-4.04753-3.92513,0-1.5901,1.29966-2.85128,3.80507-2.85128a11.20149,11.20149,0,0,1,1.7256.16772l-.05242,1.6097a6.56375,6.56375,0,0,0-1.80206-.25921c-1.09434,0-1.63386.44436-1.63386,1.1501,0,1.77742,4.08466.8691,4.08466,3.923C84.5173,61.9982,82.97736,63.25721,80.50691,63.25721ZM73.547,63.07249V53.86955h1.98554v9.20294ZM75.81,51.26006a1.27162,1.27162,0,1,1-1.26253-1.24158A1.2574,1.2574,0,0,1,75.81,51.26006ZM66.211,55.1462a1.8899,1.8899,0,0,0-2.09912,1.92772A2.07422,2.07422,0,1,0,66.211,55.1462Zm.92833,8.07463h-1.7256a4.14077,4.14077,0,0,1-.50239-.0196A1.79825,1.79825,0,0,0,63.88911,64.739c0,.9802.93052,1.53564,2.26731,1.53564,1.72561,0,2.69107-.74059,2.69107-1.74039C68.84749,63.73924,68.31015,63.22083,67.13936,63.22083ZM65.8397,67.8125c-2.41366,0-3.91865-.92574-3.91865-2.70316a2.681,2.681,0,0,1,1.48751-2.31544,1.51064,1.51064,0,0,1-.91086-1.37009,1.72492,1.72492,0,0,1,1.05721-1.57267,2.79691,2.79691,0,0,1-1.37175-2.59207c0-1.94514,1.48533-3.57445,4.1218-3.57445a6.728,6.728,0,0,1,1.52246.18515h3.1192V55.425H69.53337a1.94191,1.94191,0,0,1,.63126,1.53564c0,2.00178-1.3914,3.4089-3.99073,3.4089a6.006,6.006,0,0,1-1.05939-.09366.7604.7604,0,0,0-.53734.684c0,.464.40846.6491,1.52246.6491h1.57926c2.0052,0,3.13667.94535,3.13667,2.66613C70.81556,66.23765,68.81036,67.8125,65.8397,67.8125Zm-10.266-12.46c-1.20792,0-2.37653.92356-2.37653,3.03643,0,2.07147.81693,3.16494,2.35687,3.16494,1.28219,0,2.35906-.9998,2.35906-3.12792C57.91306,56.46119,57.14855,55.35248,55.57366,55.35248Zm-.20533,7.90473c-2.56219,0-4.23319-1.42455-4.23319-4.66573,0-2.77722,1.80206-4.90751,4.60453-4.90751,2.47045,0,4.21572,1.37009,4.21572,4.61127C59.95539,61.12692,58.09872,63.25721,55.36833,63.25721Zm-10.787-8.111a1.887,1.887,0,0,0-2.09694,1.92772,1.81558,1.81558,0,0,0,2.07946,1.90593,1.92111,1.92111,0,1,0,.01748-3.83365Zm.92833,8.07463H43.78406a4.14077,4.14077,0,0,1-.50239-.0196A1.80069,1.80069,0,0,0,42.25723,64.739c0,.9802.9327,1.53564,2.2695,1.53564,1.7256,0,2.69107-.74059,2.69107-1.74039C47.2178,63.73924,46.67827,63.22083,45.50967,63.22083ZM44.21,67.8125c-2.41366,0-3.91647-.92574-3.91647-2.70316a2.679,2.679,0,0,1,1.48534-2.31544,1.50708,1.50708,0,0,1-.91086-1.37009,1.72354,1.72354,0,0,1,1.05939-1.57267,2.79442,2.79442,0,0,1-1.37393-2.59207c0-1.94514,1.48314-3.57445,4.11961-3.57445a6.7322,6.7322,0,0,1,1.52465.18515h3.117V55.425H47.90149a1.93487,1.93487,0,0,1,.63126,1.53564c0,2.00178-1.38922,3.4089-3.99073,3.4089a5.99964,5.99964,0,0,1-1.05721-.09366.7604.7604,0,0,0-.53734.684c0,.464.40628.6491,1.52247.6491h1.57925c2.0052,0,3.13449.94535,3.13449,2.66613C49.18368,66.23765,47.17848,67.8125,44.21,67.8125Zm-8.65292-8.90736c-2.8964,0-3.52548.87129-3.52548,1.66851A1.11679,1.11679,0,0,0,33.28976,61.702a2.4662,2.4662,0,0,0,2.26732-2.61167Zm.13106,4.16692a12.24283,12.24283,0,0,1,.09174-1.70336l-.01748-.01743a3.22623,3.22623,0,0,1-3.06459,1.90594,2.295,2.295,0,0,1-2.57967-2.35247c0-2.10851,2.1166-3.33049,5.43894-3.33049v-.59247c0-1.15009-.48055-1.74257-1.92875-1.74257a5.65331,5.65331,0,0,0-2.75.74277l-.18566-1.68593a9.26253,9.26253,0,0,1,3.25025-.61208c2.82213,0,3.60193,1.22415,3.60193,3.11266v3.75742c0,.79722.01529,1.74039.05461,2.518Zm-9.97247-7.61067A6.81237,6.81237,0,0,0,24.25,55.29585c-1.57925,0-2.65612.96277-2.65612,3.44375,0,1.85148.57666,2.88831,1.83919,2.88831,1.46786,0,2.28261-1.74039,2.28261-3.31524Zm.09392,7.61067a10.93112,10.93112,0,0,1,.13324-1.72079h-.0415a3.181,3.181,0,0,1-3.00779,1.90594c-2.26513,0-3.3966-1.66633-3.3966-4.33246,0-3.16494,1.83918-5.20157,4.82732-5.20157.4456,0,.89338.037,1.39141.07188v-4.2388h1.96806v13.5158ZM15.506,52.13091a1.12076,1.12076,0,1,1,0-2.24138,1.12071,1.12071,0,0,1,0,2.24138Zm-.37133,6.77423c-2.8964,0-3.52766.87129-3.52766,1.66851A1.11937,1.11937,0,0,0,12.86952,61.702a2.46448,2.46448,0,0,0,2.26513-2.61167Zm-3.2852-6.77423a1.12074,1.12074,0,1,1,1.13147-1.1305A1.12369,1.12369,0,0,1,11.84945,52.13091Zm3.41407,10.94115a12.57269,12.57269,0,0,1,.09393-1.70336l-.01966-.01743a3.22305,3.22305,0,0,1-3.0624,1.90594,2.29578,2.29578,0,0,1-2.58186-2.35247c0-2.10851,2.1166-3.33049,5.44112-3.33049v-.59247c0-1.15009-.48055-1.74257-1.92875-1.74257a5.64694,5.64694,0,0,0-2.75.74277l-.18567-1.68593a9.2403,9.2403,0,0,1,3.24807-.61208c2.82213,0,3.60411,1.22415,3.60411,3.11266v3.75742c0,.79722.01748,1.74039.05461,2.518ZM3.06677,52.147a8.74512,8.74512,0,0,0-1.03973.03921V56.7583a6.956,6.956,0,0,0,.889.07406c1.69066-.01743,2.80684-.94317,2.80684-2.40693C5.72289,53.00088,4.8863,52.147,3.06677,52.147Zm-.1114,6.35167a8.118,8.118,0,0,1-.92833-.037v4.61127H0V50.57436c.96765-.037,2.0467-.07406,3.21531-.07406,2.97066,0,4.60452,1.44415,4.60452,3.75959C7.81983,56.68424,5.87143,58.49869,2.95537,58.49869ZM331.66849,39.15008V20.61132c0-4.48929-1.21228-7.08136-5.36679-7.08136-5.13971,0-8.77881,5.06652-8.77881,11.86253V39.15008H313.1958V10.53492h4.27029a45.48207,45.48207,0,0,1-.463,6.33423l.11789.05664a10.60549,10.60549,0,0,1,10.27719-6.96374c6.5835,0,8.60181,4.14078,8.60181,9.20947V39.15008ZM304.706,14.2773c-6.3497-1.03683-9.35318,3.801-9.35318,13.4156V39.15029H291.0235V10.53514H295.296a49.30549,49.30549,0,0,1-.63559,7.1968l.05679.05882c1.15772-4.20177,4.15671-8.46235,10.16141-7.774ZM272.08578,13.298c-4.04318,0-6.92868,2.9384-7.62109,7.4277H279.0144C279.13019,16.29084,276.474,13.298,272.08578,13.298Zm11.31473,10.65363H264.23318c-.28839,8.57779,3.117,12.14788,9.52793,12.14788a19.41176,19.41176,0,0,0,8.31347-1.84494l.40412,3.68989a25.0399,25.0399,0,0,1-9.469,1.72732c-8.66079,0-13.2806-4.66573-13.2806-14.6855,0-8.5778,4.61981-14.96867,12.586-14.96867,7.91163,0,11.2034,5.46731,11.2034,11.80155A15.1774,15.1774,0,0,1,283.40051,23.95161ZM238.538,20.72481c-.6902,0-2.82859,0-3.75039.05881V35.4103a33.65158,33.65158,0,0,0,5.31.34416c6.8719,0,9.8753-3.398,9.8753-7.94611C249.9729,22.33886,244.949,20.72481,238.538,20.72481ZM240.3882,3.68248c-1.9048,0-3.9296.05882-5.6006.11545V17.329c1.2101.05663,2.193.05663,3.6958.05663,6.92869,0,10.5655-2.70316,10.5655-7.31008C249.0489,6.38782,247.26,3.68248,240.3882,3.68248Zm-.6357,35.64207c-2.3656,0-6.0614-.11545-9.4144-.17426V.28665c2.65619-.05881,6.1816-.17208,10.8561-.17208,8.4904,0,12.47459,3.56791,12.47459,9.21384a9.71639,9.71639,0,0,1-7.33279,9.21165v.11327c5.771.86475,8.2567,4.89444,8.2567,9.03957C254.5927,31.89467,252.0524,39.32455,239.7525,39.32455Zm-31.1775-.17447V22.9725H194.3114V39.15008h-9.0059V.28643h9.0059v14.912H208.575V.28643h9.0059V39.15008ZM162.38251,7.3079c-.63561,0-1.26911,0-1.90471.06317V18.76964c.5766.05446,1.0965.11545,1.5596.11545,3.75259-.061,6.5813-2.18692,6.5813-5.9879C168.6187,9.61462,166.82761,7.3079,162.38251,7.3079Zm.17259,19.00489c-.46091,0-1.2691,0-2.0773-.05663v12.895h-9.0081V.28752C154.81821.11545,158.5141,0,162.5551,0c9.932,0,15.36,4.48711,15.36,12.49422C177.9151,20.03518,172.48711,26.31279,162.5551,26.31279Z" fill="#1a1a1a" fill-rule="evenodd"/>
</svg>
